<?xml version="1.0" ?><!DOCTYPE svg  PUBLIC '-//W3C//DTD SVG 1.1//EN'  'http://www.w3.org/Graphics/SVG/1.1/DTD/svg11.dtd'><svg height="64px" style="enable-background:new 0 0 64 64;" version="1.1" viewBox="0 0 64 64" width="64px" xml:space="preserve" xmlns="http://www.w3.org/2000/svg" xmlns:xlink="http://www.w3.org/1999/xlink"><g id="Livello_11"><g><circle cx="33.874" cy="31.688" r="30.126" style="fill:#666666;"/><circle cx="30.126" cy="32.312" r="30.126" style="fill:#9B9B9B;"/><g><circle cx="17" cy="16.143" r="4.387" style="fill:#FFFFFF;"/><path d="M42.596,48c0-2,0.008-2.604,0.001-3.922c-0.013-2.229,0.043-4.443-0.008-6.672     c-0.051-2.23,0.114-5.431-2.07-6.839c-0.513-0.331-1.724-0.489-2.331-0.489c-4.677,0-5.188,6.073-5.188,6.079V48h-7V24h7v2.798     c2-1.544,4.048-3.642,8.058-3.642c2.141,0,4.589,0.749,6.03,2.358c1.508,1.684,2.396,3.854,2.676,6.068     c0.23,1.839,0.277,3.698,0.283,5.547c0.011,3.357,0.06,6.681,0.072,10.038C50.12,47.457,50.151,47,50.153,48H42.596z" style="fill:#FFFFFF;"/><rect height="24" style="fill:#FFFFFF;" width="8" x="13" y="24"/></g></g></g><g id="Livello_1"/></svg>